<svg width="63" height="63" viewBox="0 0 63 63" fill="none" xmlns="http://www.w3.org/2000/svg">
<g filter="url(#filter0_d_660_4959)">
<rect x="14" y="10" width="35" height="35" rx="5" fill="white"/>
</g>
<path d="M35.6663 24.3749H40.8747C41.1509 24.3749 41.4159 24.2652 41.6112 24.0698C41.8066 23.8745 41.9163 23.6095 41.9163 23.3333C41.9163 23.057 41.8066 22.792 41.6112 22.5967C41.4159 22.4013 41.1509 22.2916 40.8747 22.2916H36.708V18.1249C36.708 17.8487 36.5983 17.5837 36.4029 17.3883C36.2076 17.193 35.9426 17.0833 35.6663 17.0833C35.3901 17.0833 35.1251 17.193 34.9298 17.3883C34.7344 17.5837 34.6247 17.8487 34.6247 18.1249V23.3333C34.6247 23.6095 34.7344 23.8745 34.9298 24.0698C35.1251 24.2652 35.3901 24.3749 35.6663 24.3749ZM27.333 30.6249H22.1247C21.8484 30.6249 21.5835 30.7347 21.3881 30.93C21.1928 31.1254 21.083 31.3903 21.083 31.6666C21.083 31.9429 21.1928 32.2078 21.3881 32.4032C21.5835 32.5985 21.8484 32.7083 22.1247 32.7083H26.2913V36.8749C26.2913 37.1512 26.4011 37.4161 26.5964 37.6115C26.7918 37.8068 27.0567 37.9166 27.333 37.9166C27.6093 37.9166 27.8742 37.8068 28.0696 37.6115C28.2649 37.4161 28.3747 37.1512 28.3747 36.8749V31.6666C28.3747 31.3903 28.2649 31.1254 28.0696 30.93C27.8742 30.7347 27.6093 30.6249 27.333 30.6249ZM27.333 17.0833C27.0567 17.0833 26.7918 17.193 26.5964 17.3883C26.4011 17.5837 26.2913 17.8487 26.2913 18.1249V22.2916H22.1247C21.8484 22.2916 21.5835 22.4013 21.3881 22.5967C21.1928 22.792 21.083 23.057 21.083 23.3333C21.083 23.6095 21.1928 23.8745 21.3881 24.0698C21.5835 24.2652 21.8484 24.3749 22.1247 24.3749H27.333C27.6093 24.3749 27.8742 24.2652 28.0696 24.0698C28.2649 23.8745 28.3747 23.6095 28.3747 23.3333V18.1249C28.3747 17.8487 28.2649 17.5837 28.0696 17.3883C27.8742 17.193 27.6093 17.0833 27.333 17.0833ZM40.8747 30.6249H35.6663C35.3901 30.6249 35.1251 30.7347 34.9298 30.93C34.7344 31.1254 34.6247 31.3903 34.6247 31.6666V36.8749C34.6247 37.1512 34.7344 37.4161 34.9298 37.6115C35.1251 37.8068 35.3901 37.9166 35.6663 37.9166C35.9426 37.9166 36.2076 37.8068 36.4029 37.6115C36.5983 37.4161 36.708 37.1512 36.708 36.8749V32.7083H40.8747C41.1509 32.7083 41.4159 32.5985 41.6112 32.4032C41.8066 32.2078 41.9163 31.9429 41.9163 31.6666C41.9163 31.3903 41.8066 31.1254 41.6112 30.93C41.4159 30.7347 41.1509 30.6249 40.8747 30.6249Z" fill="#292D32"/>
<defs>
<filter id="filter0_d_660_4959" x="0" y="0" width="63" height="63" filterUnits="userSpaceOnUse" color-interpolation-filters="sRGB">
<feFlood flood-opacity="0" result="BackgroundImageFix"/>
<feColorMatrix in="SourceAlpha" type="matrix" values="0 0 0 0 0 0 0 0 0 0 0 0 0 0 0 0 0 0 127 0" result="hardAlpha"/>
<feOffset dy="4"/>
<feGaussianBlur stdDeviation="7"/>
<feComposite in2="hardAlpha" operator="out"/>
<feColorMatrix type="matrix" values="0 0 0 0 0 0 0 0 0 0 0 0 0 0 0 0 0 0 0.55 0"/>
<feBlend mode="normal" in2="BackgroundImageFix" result="effect1_dropShadow_660_4959"/>
<feBlend mode="normal" in="SourceGraphic" in2="effect1_dropShadow_660_4959" result="shape"/>
</filter>
</defs>
</svg>
