<svg width="40" height="40" viewBox="0 0 40 40" fill="none" xmlns="http://www.w3.org/2000/svg">
<path d="M36.3425 16.7355H35V16.6663H20V23.333H29.4192C28.045 27.2138 24.3525 29.9997 20 29.9997C14.4775 29.9997 10 25.5222 10 19.9997C10 14.4772 14.4775 9.99967 20 9.99967C22.5492 9.99967 24.8684 10.9613 26.6342 12.5322L31.3484 7.81801C28.3717 5.04384 24.39 3.33301 20 3.33301C10.7959 3.33301 3.33337 10.7955 3.33337 19.9997C3.33337 29.2038 10.7959 36.6663 20 36.6663C29.2042 36.6663 36.6667 29.2038 36.6667 19.9997C36.6667 18.8822 36.5517 17.7913 36.3425 16.7355Z" fill="#FFC107"/>
<path d="M5.25391 12.2422L10.7297 16.258C12.2114 12.5897 15.7997 9.99967 19.9989 9.99967C22.5481 9.99967 24.8672 10.9613 26.6331 12.5322L31.3472 7.81801C28.3706 5.04384 24.3889 3.33301 19.9989 3.33301C13.5972 3.33301 8.04557 6.94717 5.25391 12.2422Z" fill="#FF3D00"/>
<path d="M20.0002 36.6672C24.3052 36.6672 28.2169 35.0197 31.1744 32.3406L26.0161 27.9756C24.2865 29.2909 22.1731 30.0023 20.0002 30.0006C15.6652 30.0006 11.9844 27.2364 10.5977 23.3789L5.16272 27.5664C7.92105 32.9639 13.5227 36.6672 20.0002 36.6672Z" fill="#4CAF50"/>
<path d="M36.3425 16.7357H35V16.6665H20V23.3332H29.4192C28.7618 25.1802 27.5778 26.7942 26.0133 27.9757L26.0158 27.974L31.1742 32.339C30.8092 32.6707 36.6667 28.3332 36.6667 19.9998C36.6667 18.8823 36.5517 17.7915 36.3425 16.7357Z" fill="#1976D2"/>
</svg>
